<svg xmlns="http://www.w3.org/2000/svg" viewBox="0 0 256.81 29.64"><defs><style>.cls-1{fill:#1c3c83;}.cls-2{fill:#25b0ec;}</style></defs><g id="Camada_2" data-name="Camada 2"><g id="Camada_1-2" data-name="Camada 1"><circle class="cls-1" cx="55.92" cy="7.31" r="5.37"/><circle class="cls-1" cx="55.92" cy="24.28" r="5.37"/><circle class="cls-1" cx="77.65" cy="7.29" r="5.37"/><circle class="cls-1" cx="77.65" cy="24.25" r="5.37"/><circle class="cls-1" cx="99.37" cy="7.27" r="5.37"/><circle class="cls-1" cx="99.37" cy="24.23" r="5.37"/><circle class="cls-1" cx="121.1" cy="7.25" r="5.37"/><circle class="cls-1" cx="121.1" cy="24.21" r="5.37"/><circle class="cls-1" cx="142.82" cy="7.22" r="5.37"/><circle class="cls-1" cx="142.82" cy="24.19" r="5.37"/><circle class="cls-1" cx="164.55" cy="7.2" r="5.37"/><circle class="cls-1" cx="164.55" cy="24.17" r="5.37"/><circle class="cls-1" cx="186.27" cy="7.18" r="5.37"/><circle class="cls-1" cx="186.27" cy="24.15" r="5.37"/><circle class="cls-1" cx="207.99" cy="7.16" r="5.37"/><circle class="cls-1" cx="207.99" cy="24.12" r="5.37"/><circle class="cls-1" cx="229.72" cy="7.14" r="5.37"/><circle class="cls-1" cx="229.72" cy="24.1" r="5.37"/><circle class="cls-1" cx="251.44" cy="7.12" r="5.37"/><circle class="cls-1" cx="251.44" cy="24.08" r="5.37"/><rect class="cls-2" x="12.37" y="-3.95" width="4" height="36.64" transform="translate(14.37 -5.95) rotate(45)"/><rect class="cls-2" x="28.92" y="-3.95" width="4" height="36.64" transform="translate(19.22 -17.66) rotate(45)"/></g></g></svg>