<?xml version="1.0" encoding="utf-8"?>
<!-- Generator: Adobe Illustrator 24.0.1, SVG Export Plug-In . SVG Version: 6.00 Build 0)  -->
<svg version="1.1" id="Camada_1" xmlns="http://www.w3.org/2000/svg" xmlns:xlink="http://www.w3.org/1999/xlink" x="0px" y="0px"
	 viewBox="0 0 24 24" style="enable-background:new 0 0 24 24;" xml:space="preserve">
<style type="text/css">
	.st0{fill:#FFFFFF;}
</style>
<path class="st0" d="M19.5,8.1c0-4.3-3.5-7.7-7.7-7.7S4,3.9,4,8.1c0,2.5,1.2,4.7,3,6.1l-1.1,8.3c0,0.4,0.1,0.7,0.4,0.9
	c0.3,0.2,0.7,0.2,1,0l4.3-2.6l4.3,2.6c0.2,0.1,0.3,0.1,0.5,0.1c0.2,0,0.4-0.1,0.5-0.2c0.3-0.2,0.5-0.6,0.4-0.9l-1.1-8.3
	C18.3,12.8,19.5,10.6,19.5,8.1z M5.9,8.1c0-3.2,2.6-5.8,5.8-5.8s5.8,2.6,5.8,5.8s-2.6,5.8-5.8,5.8S5.9,11.3,5.9,8.1z M15.4,20.8
	l-3.1-1.9c-0.3-0.2-0.7-0.2-1,0l-3.1,1.9l0.7-5.5c0.9,0.4,1.9,0.6,2.9,0.6c1,0,2-0.2,2.9-0.6L15.4,20.8z"/>
</svg>
