<svg width="121" height="121" viewBox="0 0 121 121" fill="none" xmlns="http://www.w3.org/2000/svg">
<path d="M105.875 80.6667V40.3334C105.873 38.5651 105.406 36.8284 104.522 35.2975C103.637 33.7667 102.365 32.4954 100.833 31.6113L65.5417 11.4446C64.0088 10.5596 62.27 10.0937 60.5 10.0937C58.73 10.0937 56.9912 10.5596 55.4583 11.4446L20.1667 31.6113C18.6353 32.4954 17.3634 33.7667 16.4785 35.2975C15.5936 36.8284 15.1268 38.5651 15.125 40.3334V80.6667C15.1268 82.4349 15.5936 84.1716 16.4785 85.7025C17.3634 87.2334 18.6353 88.5047 20.1667 89.3888L55.4583 109.555C56.9912 110.44 58.73 110.906 60.5 110.906C62.27 110.906 64.0088 110.44 65.5417 109.555L100.833 89.3888C102.365 88.5047 103.637 87.2334 104.522 85.7025C105.406 84.1716 105.873 82.4349 105.875 80.6667Z" stroke="white" stroke-width="5" stroke-linecap="round" stroke-linejoin="round"/>
<path d="M16.4863 35.09L60.5 60.5505L104.514 35.09" stroke="white" stroke-width="5" stroke-linecap="round" stroke-linejoin="round"/>
<path d="M60.5 111.32V60.5" stroke="white" stroke-width="5" stroke-linecap="round" stroke-linejoin="round"/>
</svg>
