<?xml version="1.0" encoding="utf-8"?>
<!-- Generator: Adobe Illustrator 24.0.1, SVG Export Plug-In . SVG Version: 6.00 Build 0)  -->
<svg version="1.1" id="Camada_1" xmlns="http://www.w3.org/2000/svg" xmlns:xlink="http://www.w3.org/1999/xlink" x="0px" y="0px"
	 viewBox="0 0 24 24" style="enable-background:new 0 0 24 24;" xml:space="preserve">
<style type="text/css">
	.st0{fill:#FFFFFF;}
</style>
<path class="st0" d="M19,10H8V7c0-1.1,0.4-2.1,1.2-2.8C9.9,3.4,10.9,3,12,3c0,0,0,0,0,0c1.9,0,3.5,1.3,3.9,3.2
	C16,6.7,16.6,7.1,17.1,7c0.5-0.1,0.9-0.6,0.8-1.2C17.3,3,14.8,1,12,1c0,0,0,0,0,0c-1.6,0-3.1,0.6-4.2,1.8C6.6,3.9,6,5.4,6,7v3H5
	c-1.7,0-3,1.3-3,3v7c0,1.7,1.3,3,3,3h14c1.7,0,3-1.3,3-3v-7C22,11.3,20.7,10,19,10z M20,20c0,0.6-0.4,1-1,1H5c-0.6,0-1-0.4-1-1v-7
	c0-0.6,0.4-1,1-1h14c0.6,0,1,0.4,1,1V20z"/>
</svg>
