<svg xmlns="http://www.w3.org/2000/svg" viewBox="0 0 135 135"><defs><style>.cls-1{fill:#010201;}</style></defs><g id="Camada_2" data-name="Camada 2"><g id="Graphic_Elements" data-name="Graphic Elements"><path class="cls-1" d="M100.63,42.43a14.11,14.11,0,0,0-8.06-8.06,23.4,23.4,0,0,0-7.9-1.46c-4.48-.21-5.82-.25-17.17-.25s-12.69,0-17.17.25a23.4,23.4,0,0,0-7.9,1.46,14.11,14.11,0,0,0-8.06,8.06,23.4,23.4,0,0,0-1.46,7.9c-.21,4.48-.25,5.82-.25,17.17s0,12.69.25,17.17a23.4,23.4,0,0,0,1.46,7.9,14.11,14.11,0,0,0,8.06,8.06,23.4,23.4,0,0,0,7.9,1.46c4.48.21,5.82.25,17.17.25s12.69,0,17.17-.25a23.4,23.4,0,0,0,7.9-1.46,14.11,14.11,0,0,0,8.06-8.06,23.4,23.4,0,0,0,1.46-7.9c.21-4.48.25-5.82.25-17.17s0-12.69-.25-17.17A23.4,23.4,0,0,0,100.63,42.43ZM67.5,89.32A21.82,21.82,0,1,1,89.32,67.5,21.82,21.82,0,0,1,67.5,89.32ZM90.19,49.91a5.1,5.1,0,1,1,5.1-5.1A5.1,5.1,0,0,1,90.19,49.91Z"/><circle class="cls-1" cx="67.5" cy="67.5" r="14.17"/><path class="cls-1" d="M67.5,0A67.5,67.5,0,1,0,135,67.5,67.5,67.5,0,0,0,67.5,0Zm42.24,85a31,31,0,0,1-2,10.32,21.7,21.7,0,0,1-12.43,12.43,31,31,0,0,1-10.32,2c-4.53.21-6,.26-17.52.26s-13,0-17.52-.26a31,31,0,0,1-10.32-2A21.7,21.7,0,0,1,27.23,95.34a31,31,0,0,1-2-10.32C25.05,80.49,25,79,25,67.5s.05-13,.26-17.52a31,31,0,0,1,2-10.32A21.7,21.7,0,0,1,39.66,27.23a31,31,0,0,1,10.32-2c4.53-.21,6-.26,17.52-.26s13,.05,17.52.26a31,31,0,0,1,10.32,2,21.7,21.7,0,0,1,12.43,12.43,31,31,0,0,1,2,10.32c.21,4.53.26,6,.26,17.52S110,80.49,109.74,85Z"/></g></g></svg>